<?xml version='1.0' encoding='utf-8'?>
<svg xmlns="http://www.w3.org/2000/svg" version="1.1" width="600px" height="976px" viewBox="0 0 600 976"> <g id="layer1"> <g style="fill:rgb(0,0,0); fill-opacity:1.0; stroke-linejoin: miter"> <path d="M291.3568,498.89935C291.13388,499.01077,290.96274,499.2839,290.91876,499.59753C290.89474,499.75946,290.8949,499.7984,290.92822,499.95605C290.99905,500.28568,291.14948,500.52692,291.5072,500.86783C291.72925,501.08218,291.89597,501.29672,291.99704,501.49716C292.1085,501.71808,292.1975,501.97998,292.19788,502.08447C292.198,502.1234,292.20862,502.22787,292.22327,502.31595C292.2484,502.4777,292.22708,502.8097,292.18253,502.95737C292.03464,503.4353,292.01022,503.48663,291.8266,503.71262C291.68176,503.88934,291.32034,504.23688,291.165,504.34808C291.08325,504.4078,290.92798,504.52924,290.82175,504.61975C290.71347,504.7103,290.5602,504.82968,290.4785,504.88733C290.39468,504.94293,290.27206,505.03763,290.20465,505.0952C290.05145,505.2269,289.75912,505.41028,289.59747,505.47437C289.52994,505.50122,289.4154,505.5549,289.34384,505.5941C289.25998,505.63745,289.2047,505.65402,289.19238,505.64175C289.1821,505.63153,289.16943,505.5312,289.16495,505.42056L289.1581,505.2198L289.23758,505.0966C289.28036,505.0288,289.33942,504.93027,289.36792,504.8769C289.429,504.76398,289.48416,504.72488,289.54166,504.75745C289.6402,504.80835,289.6769,504.76108,289.61304,504.66498C289.59247,504.63434,289.58618,504.59952,289.5943,504.57898C289.60242,504.5585,289.61044,504.50516,289.61234,504.4601C289.61627,504.415,289.64868,504.30835,289.68936,504.22418C289.728,504.14005,289.7767,504.0149,289.79697,503.94724C289.81723,503.87955,289.84363,503.81186,289.8538,503.79745C289.864,503.78516,289.872,503.72977,289.87183,503.67648C289.8696,503.6253,289.87747,503.53918,289.88962,503.48795C289.90775,503.41003,289.92526,503.14767,289.92847,502.89157C289.93015,502.78912,289.8487,502.34683,289.8115,502.25684C289.7681,502.15045,289.70422,502.0523,289.65494,502.01764C289.6344,502.0034,289.57275,501.95236,289.5152,501.9034C289.45767,501.85446,289.38577,501.80142,289.35498,501.7872C289.25443,501.7363,289.2256,501.70157,289.22534,501.63193C289.22504,501.54587,289.19217,501.52753,289.13504,501.581C289.07785,501.63657,289.0594,501.63458,288.84198,501.57388C288.6697,501.52325,288.5691,501.4642,288.5689,501.40887C288.56876,501.3679,288.49695,501.33743,288.4704,501.36414C288.45612,501.37854,288.44595,501.39902,288.446,501.4134C288.44614,501.45642,288.31726,501.5204,288.18008,501.54547C287.92416,501.5935,287.92618,501.5935,287.88507,501.54852C287.82132,501.4791,287.7722,501.49365,287.75815,501.58383C287.75217,501.6269,287.73184,501.67203,287.71344,501.6844C287.69296,501.6947,287.6337,501.7297,287.57642,501.76068C287.43738,501.83902,287.32086,501.9214,287.25146,501.9913C287.15756,502.08792,287.06406,502.2993,287.036,502.48175C287.02197,502.57196,286.9998,502.66833,286.98553,502.69708C286.95096,502.76483,286.96048,503.72366,286.9936,503.8137C287.06183,503.9876,287.18625,504.4154,287.18643,504.4707C287.18658,504.51172,287.1683,504.55066,287.13562,504.58154C287.0478,504.6638,287.08078,504.71698,287.19333,504.6756C287.26083,504.6487,287.2567,504.64258,287.38678,504.9187C287.4776,505.10895,287.5069,505.27682,287.4495,505.27704C287.3901,505.27725,287.13272,504.9237,287.0316,504.70892C287.01505,504.67007,286.99222,504.58817,286.9797,504.5247C286.96924,504.4592,286.95053,504.3855,286.93814,504.3568C286.92575,504.32822,286.90695,504.23196,286.8964,504.14188C286.88788,504.05173,286.86896,503.91864,286.85846,503.8449C286.84592,503.77118,286.82074,503.60532,286.80185,503.4763C286.75986,503.19373,286.68088,502.87436,286.61273,502.71887C286.52805,502.52658,286.48273,502.45706,286.34906,502.32028C286.18866,502.15897,286.0881,502.11218,285.85037,502.09253C285.7274,502.0807,285.711,502.08484,285.5474,502.16943C285.4533,502.21893,285.3756,502.26633,285.37564,502.27658C285.3757,502.28476,285.36343,502.293,285.3491,502.29306C285.31836,502.29318,285.2081,502.4042,285.02444,502.6138C284.86526,502.79883,284.6984,503.119,284.59912,503.43286C284.56668,503.5354,284.52054,503.81628,284.5209,503.9167C284.52136,504.04987,284.58954,504.20123,284.67578,504.25827C284.80722,504.35004,284.8746,504.27606,284.7758,504.14935C284.72226,504.07782,284.72018,504.0717,284.7339,503.88724C284.74945,503.64954,284.76965,503.57568,284.9079,503.26785C284.92618,503.22272,284.94852,503.16937,284.95462,503.14883C284.96274,503.13037,284.97702,503.11395,284.98727,503.1139C284.99753,503.11386,285.01788,503.081,285.03006,503.04205C285.04422,503.001,285.0748,502.95377,285.10345,502.9373C285.13,502.91873,285.15652,502.88382,285.16464,502.86124C285.1829,502.80383,285.38705,502.60025,285.428,502.6001C285.44443,502.60007,285.47302,502.57742,285.49136,502.54868C285.5097,502.51993,285.53625,502.4973,285.54855,502.49725C285.56085,502.49722,285.6079,502.47858,285.6529,502.4559C285.74084,502.41052,285.81662,502.40207,285.83725,502.43475C285.8434,502.44498,285.87213,502.45514,285.89877,502.45505C285.93362,502.45493,285.95825,502.47327,285.98096,502.51624C285.99747,502.54895,286.0242,502.58365,286.03857,502.59183C286.05295,502.59998,286.088,502.66748,286.1149,502.7411C286.16248,502.86594,286.16464,502.8987,286.1661,503.3146C286.16492,503.5564,286.15372,503.872,286.14194,504.0134C286.12213,504.21014,286.12262,504.3454,286.1398,504.5707C286.16556,504.89844,286.19473,505.0356,286.2711,505.18903C286.38455,505.41605,286.60513,505.7984,286.67307,505.88626C286.69778,505.92102,286.7205,505.964,286.72055,505.9824C286.7208,506.05206,286.5036,506.05487,286.37225,505.98978C286.3353,505.97147,286.26968,505.95734,286.2287,505.9575C286.18362,505.95764,286.13028,505.94144,286.0995,505.917C286.0707,505.89453,286.02966,505.87628,286.00714,505.87634C285.93747,505.8766,285.57434,505.7426,285.45523,505.67136C285.34644,505.6082,284.82422,505.09372,284.73154,504.95883C284.64297,504.83212,284.55838,504.66028,284.41373,504.3145C284.30008,504.0445,284.27496,503.8909,284.29437,503.5876C284.30396,503.40317,284.31805,503.3314,284.35468,503.25955C284.41977,503.1323,284.55023,502.93924,284.63394,502.85083C284.74826,502.72955,284.9399,502.46866,284.99487,502.35986C285.05997,502.22852,285.1472,501.9782,285.1632,501.8737C285.18326,501.7425,285.17395,501.43314,285.1489,501.30005C285.1343,501.23248,285.11752,501.12192,285.1091,501.05432C285.09854,500.9642,285.0613,500.86597,284.9726,500.69214C284.8653,500.48148,284.8262,500.42834,284.65344,500.2507C284.48895,500.0853,284.4232,500.0323,284.2528,499.94272C284.00854,499.81244,283.88965,499.7924,283.7157,499.85242C283.63177,499.8814,283.57455,499.92053,283.4929,500.00687C283.3398,500.1672,283.28918,500.33542,283.29236,500.6612C283.2932,500.90295,283.31616,501.01352,283.40503,501.2345C283.46292,501.37976,283.4835,501.40225,283.54697,501.3938C283.6084,501.38538,283.61035,501.3567,283.5603,501.111C283.5228,500.92676,283.51764,500.6317,283.54996,500.50046C283.58228,500.36716,283.65363,500.26447,283.7518,500.2129C283.84793,500.16135,283.9585,500.15274,283.9935,500.19565C284.0079,500.21198,284.04486,500.23236,284.07767,500.23837C284.11047,500.24646,284.14334,500.2689,284.14957,500.2914C284.1578,500.31186,284.18253,500.34048,284.20712,500.35266C284.28717,500.39337,284.3448,500.4587,284.34494,500.50586C284.34506,500.53247,284.3615,500.55704,284.38205,500.5631C284.42514,500.5773,284.50137,500.69583,284.4933,500.73688C284.48926,500.75122,284.50577,500.78394,284.52838,500.80844C284.58185,500.86563,284.61703,500.95975,284.60284,501.00693C284.59473,501.03152,284.60715,501.06836,284.63187,501.09903C284.6792,501.15826,284.6877,501.25046,284.65103,501.31C284.6327,501.33875,284.6348,501.35718,284.6616,501.39603C284.711,501.46344,284.70508,501.52905,284.6439,501.60916C284.597,501.67285,284.595,501.6831,284.62183,501.73627C284.65894,501.80786,284.65283,501.82428,284.56302,501.91473C284.50177,501.9764,284.49362,501.99283,284.51425,502.02963C284.54105,502.08075,284.52682,502.11157,284.47354,502.11176C284.4326,502.11188,284.34073,502.21054,284.32047,502.27826C284.31033,502.30698,284.29193,502.3173,284.2632,502.3133C284.20993,502.30527,284.12216,502.3978,284.09174,502.49213C284.07755,502.53522,284.05716,502.5558,284.02234,502.56C283.9609,502.56842,283.81198,502.75336,283.82855,502.8045C283.83478,502.83115,283.80826,502.864,283.73676,502.9196C283.63458,502.99777,283.59186,503.08194,283.63504,503.12482C283.68234,503.17178,283.66208,503.2415,283.5864,503.27457C283.4677,503.32413,283.40897,503.50262,283.49515,503.54944C283.52597,503.56573,283.5363,503.59232,283.53653,503.66196C283.5367,503.7132,283.52866,503.7542,283.5184,503.75427C283.4918,503.75436,283.43488,503.88568,283.4351,503.9492C283.4352,503.98196,283.4538,504.01877,283.48257,504.04123C283.52982,504.08,283.53195,504.10864,283.51474,504.45703C283.51096,504.53693,283.51715,504.56152,283.55414,504.59006C283.63428,504.65332,283.6715,504.75766,283.67416,504.92157C283.67682,505.09982,283.68927,505.1387,283.76932,505.17734C283.84937,505.2201,283.97104,505.44095,283.96725,505.5393C283.9655,505.62537,284.02728,505.70712,284.10727,505.72733C284.17288,505.74347,284.36432,505.99686,284.36456,506.06653C284.36484,506.14026,284.4635,506.22806,284.57013,506.25226C284.62958,506.26636,284.69736,506.30713,284.78778,506.38672C284.8597,506.44998,284.91937,506.51328,284.9194,506.52557C284.91953,506.56448,284.98325,506.60934,285.0735,506.6377C285.19656,506.6762,285.34842,506.7474,285.35873,506.7719C285.3815,506.82922,285.17755,507.10248,285.03043,507.21155C284.9916,507.2404,284.9119,507.3001,284.85468,507.34537C284.61563,507.5347,284.18192,507.71655,283.74585,507.8144C283.5145,507.86642,282.9511,507.89096,282.7666,507.85675C282.38116,507.78644,282.23962,507.74182,282.10202,507.6542C281.87408,507.50543,281.8082,507.41144,281.80753,507.22705C281.8071,507.10413,281.8375,507.00156,281.9412,506.784C281.9575,506.75116,281.96967,506.71628,281.9696,506.70398C281.96957,506.69373,282.0285,506.5624,282.0997,506.41464C282.32748,505.93646,282.36,505.85233,282.3981,505.62268C282.4443,505.3562,282.40417,505.01825,282.30518,504.83215C282.25153,504.73196,281.99255,504.5034,281.84888,504.43015C281.78525,504.39755,281.6396,504.34482,281.41806,504.26978C281.3155,504.23737,281.23965,504.22943,280.9774,504.23035C280.59833,504.22964,280.4018,504.27133,280.1011,504.41376C279.85565,504.53345,279.52676,504.81122,279.39224,505.0166C279.2435,505.24457,279.19888,505.37582,279.19965,505.58893C279.20047,505.8225,279.23175,505.9781,279.28726,506.03735C279.38187,506.1374,279.41653,506.08603,279.43402,505.81964C279.44766,505.6188,279.49008,505.4465,279.53912,505.40533C279.55545,505.393,279.56763,505.36224,279.56754,505.33765C279.56744,505.311,279.5919,505.26996,279.62048,505.24118C279.64908,505.21442,279.6817,505.17126,279.69186,505.1446C279.70203,505.11792,279.73672,505.0871,279.76947,505.07672C279.80426,505.0643,279.84918,505.0232,279.87158,504.9842C279.89807,504.939,279.9287,504.9143,279.9574,504.91418C279.98404,504.9141,280.02695,504.88528,280.05756,504.8483C280.09836,504.80103,280.127,504.78455,280.17413,504.7864C280.21716,504.78625,280.25192,504.7697,280.2846,504.73685C280.3193,504.69983,280.35205,504.68744,280.41556,504.6872C280.46063,504.68704,280.5159,504.67453,280.5384,504.65808C280.60175,504.61484,280.70413,504.59808,280.75342,504.62454C280.7883,504.64288,280.80673,504.64075,280.8415,504.6181C280.8926,504.5851,281.00735,504.5929,281.07513,504.63776C281.10593,504.65814,281.13055,504.66217,281.15506,504.6477C281.20416,504.61884,281.3313,504.65326,281.3745,504.70837C281.40128,504.73904,281.43204,504.75122,281.4771,504.74902C281.5529,504.74466,281.64938,504.79965,281.68448,504.8692C281.69687,504.89578,281.73178,504.9223,281.75842,504.92426C281.83017,504.93423,281.86102,504.96484,281.86124,505.02838C281.86136,505.0591,281.87582,505.10208,281.8923,505.12454C281.93347,505.17767,281.93158,505.21457,281.88052,505.26804C281.84583,505.30502,281.8418,505.31937,281.86444,505.3521C281.89944,505.4093,281.87314,505.4975,281.79962,505.5654C281.75467,505.60654,281.73843,505.64142,281.7406,505.68036C281.7428,505.71313,281.74496,505.74792,281.74295,505.7623C281.73898,505.79916,281.61856,505.9328,281.58783,505.9329C281.55707,505.933,281.53677,505.97815,281.537,506.04578C281.53723,506.11337,281.4415,506.27557,281.36185,506.33942C281.31076,506.38055,281.29242,506.41132,281.2926,506.45844C281.29288,506.54044,281.20746,506.719,281.14,506.77045C281.08893,506.81158,281.08694,506.82187,281.0996,506.92834C281.11642,507.05328,281.0881,507.1517,281.02274,507.20728C280.98596,507.23608,280.986,507.24634,281.0108,507.31387C281.0253,507.35477,281.06445,507.41815,281.0953,507.45288C281.157,507.51822,281.16745,507.57147,281.13077,507.631C281.11243,507.6618,281.12073,507.68637,281.1763,507.76404C281.21338,507.8172,281.26477,507.86615,281.2894,507.87222C281.35706,507.88837,281.39423,507.9702,281.36166,508.0318C281.33926,508.0728,281.34137,508.08923,281.3867,508.15872C281.46088,508.27527,281.49786,508.3038,281.5469,508.2729C281.56735,508.25848,281.59598,508.24814,281.60828,508.2481C281.64926,508.24796,281.7705,508.34998,281.77063,508.38275C281.77097,508.47495,281.94968,508.60953,282.00278,508.5561C282.0579,508.50058,282.25482,508.5634,282.3084,508.6554C282.3414,508.71265,282.4584,508.77783,282.52603,508.7776C282.54242,508.77753,282.5731,508.76306,282.5915,508.7466C282.62006,508.71988,282.6549,508.7177,282.76352,508.72757C282.88034,508.73944,282.9091,508.74957,282.96872,508.80878C283.02832,508.86597,283.055,508.87817,283.13284,508.8779C283.20663,508.87762,283.23526,508.86725,283.2761,508.82202C283.3169,508.77686,283.34964,508.76645,283.45,508.75793C283.56064,508.74933,283.58115,508.75336,283.63663,508.80237C283.73935,508.886,283.9196,508.86078,283.97452,508.75403C283.99893,508.70477,284.02347,508.69238,284.14838,508.6694C284.28146,508.64435,284.2999,508.6443,284.35535,508.67688C284.4703,508.74408,284.67084,508.6614,284.70932,508.5322C284.71945,508.50143,284.7603,508.4726,284.85034,508.4395C284.91992,508.41467,284.9895,508.3837,285.00378,508.37338C285.0222,508.359,285.03857,508.36096,285.05298,508.37527C285.12082,508.44263,285.32953,508.35992,285.3783,508.2471C285.4149,508.165,285.6153,508.05365,285.7341,508.05118C285.7792,508.05103,285.8386,508.0488,285.86725,508.0446C285.91232,508.03827,285.9185,508.0444,285.91254,508.09973C285.9027,508.22064,285.7604,508.5326,285.6442,508.69485C285.5178,508.87155,285.1596,509.56735,285.0744,509.80328C285.0541,509.85867,285.01553,509.96744,284.98712,510.04126C284.96075,510.11713,284.91824,510.25867,284.89398,510.35916C284.86978,510.45966,284.8415,510.5745,284.8314,510.61346C284.79092,510.76523,284.7509,511.02145,284.7512,511.11163C284.75137,511.16492,284.7333,511.2756,284.71106,511.35764C284.67667,511.48685,284.67285,511.5545,284.6802,511.89456C284.6875,512.2244,284.70016,512.33704,284.75656,512.6319C284.7941,512.8223,284.8316,512.99835,284.83987,513.0209C284.98462,513.4015,285.0856,513.563,285.23346,513.65674C285.30942,513.7036,285.32584,513.70557,285.69052,513.7043C285.99377,513.7032,286.07162,513.6968,286.092,513.6742C286.10425,513.6578,286.18192,513.6083,286.2617,513.5671C286.41507,513.4866,286.60098,513.3343,286.8276,513.104C286.95624,512.97455,287.05,512.83075,287.3738,512.27435C287.44507,512.1491,287.51025,512.04443,287.51843,512.0382C287.5266,512.03204,287.54492,511.99512,287.5612,511.95612C287.61603,511.81863,287.71378,511.64825,287.87888,511.40793C287.97263,511.27032,288.11722,511.01373,288.21283,510.81873C288.37146,510.4924,288.3816,510.45956,288.39944,510.2853C288.43512,509.94305,288.40543,509.6563,288.31232,509.4026C288.2689,509.288,288.11417,508.99554,288.04007,508.89334C287.9721,508.79932,287.94745,508.77893,287.8983,508.77908C287.8163,508.7794,287.8021,508.8143,287.78656,509.0561C287.76715,509.35944,287.72086,509.59726,287.6054,509.97876C287.57706,510.069,287.54688,510.22482,287.53494,510.32733C287.47153,510.9402,287.4361,511.3501,287.43655,511.47913C287.43692,511.58566,287.41257,511.6411,287.24142,511.92035C287.03363,512.26117,286.58096,512.8816,286.53793,512.8817C286.52972,512.8818,286.4909,512.9085,286.45413,512.9414C286.4174,512.9723,286.36423,513.0073,286.33557,513.0156C286.30692,513.0239,286.266,513.0466,286.24353,513.0672C286.1884,513.1166,286.1209,513.1496,286.07584,513.1497C286.05533,513.1498,286.0267,513.16833,286.01245,513.1909C285.9941,513.22174,285.96548,513.23206,285.89786,513.2323C285.8487,513.2325,285.80365,513.2408,285.7996,513.2511C285.79758,513.2613,285.76068,513.2553,285.72168,513.2349C285.67447,513.2126,285.64774,513.18604,285.64352,513.1533C285.6393,513.12463,285.62277,513.0837,285.60834,513.0612C285.57538,513.00604,285.5673,512.4487,285.59515,512.2212C285.62308,512.0101,285.6714,511.76196,285.6938,511.71887C285.70395,511.7004,285.7282,511.61218,285.74634,511.522C285.7665,511.43176,285.78668,511.3354,285.79272,511.3067C285.79877,511.27798,285.81906,511.2267,285.83945,511.18973C285.8598,511.15485,285.8943,511.0584,285.91858,510.97437C285.94287,510.89227,285.97525,510.78357,285.99353,510.7323C286.04623,510.57025,286.26187,510.131,286.3638,509.98315C286.41678,509.90305,286.52884,509.72437,286.61032,509.58273C286.6938,509.4411,286.83038,509.2439,286.91403,509.14117C286.99973,509.04047,287.08337,508.9398,287.09967,508.91718C287.15274,508.84528,287.71817,508.25934,287.78156,508.21198C287.8592,508.15228,287.93698,508.13562,288.0743,508.15356C288.1932,508.1675,288.21375,508.18176,288.3167,508.32892C288.41556,508.4679,288.55338,508.61902,288.6232,508.66388C288.6581,508.68628,288.70944,508.72504,288.73825,508.75156C288.767,508.77808,288.81015,508.8087,288.83682,508.81885C288.86145,508.82898,288.89227,508.85962,288.90262,508.88623C288.91708,508.92303,288.94174,508.94138,288.99915,508.94937C289.13446,508.97144,289.14883,508.97955,289.16544,509.04712C289.18207,509.11267,289.18414,509.11267,289.32962,509.12238C289.46283,509.13013,289.48132,509.13824,289.504,509.18323C289.5267,509.23026,289.54312,509.2343,289.70297,509.244C289.7993,509.2498,289.93655,509.24725,290.01028,509.23676C290.084,509.2283,290.2499,509.2113,290.37894,509.20065C290.508,509.1879,290.6739,509.16882,290.7476,509.15427C290.87042,509.1292,290.88065,509.12302,290.89072,509.06564C290.8987,509.01437,290.91302,509.0041,290.98264,508.9895C291.14438,508.95618,291.1546,508.95203,291.1606,508.9049C291.16458,508.87003,291.18503,508.85562,291.24847,508.84308C291.3795,508.81393,291.4286,508.78305,291.44675,508.71124C291.4589,508.66205,291.47928,508.64148,291.52023,508.6311C291.62262,508.61023,291.66757,508.58344,291.66745,508.54456C291.66727,508.4974,291.75513,508.41513,291.8574,508.3697C291.91263,508.34494,291.93304,508.3223,291.93292,508.28748C291.93268,508.22397,291.96945,508.19107,292.04526,508.1908C292.0801,508.19067,292.12717,508.17615,292.14963,508.15967C292.2007,508.12057,292.30112,508.1202,292.32996,508.15906C292.3423,508.17743,292.39972,508.19568,292.4592,508.2016C292.56577,508.2156,292.5966,508.24414,292.63806,508.37924C292.64426,508.39972,292.67712,508.42007,292.71402,508.42813C292.7858,508.4422,292.91544,508.5975,292.91772,508.67126C292.91782,508.6958,292.9508,508.75104,292.994,508.7939C293.07626,508.8817,293.16086,509.0515,293.1756,509.16205C293.1798,509.201,293.20258,509.2603,293.22726,509.29095C293.2499,509.32367,293.2685,509.36456,293.26855,509.37894C293.2686,509.39532,293.2748,509.41577,293.28305,509.4219C293.3077,509.4464,293.3906,509.71042,293.39285,509.76575C293.39294,509.79443,293.41162,509.8558,293.4343,509.90286C293.457,509.94785,293.47565,510.0072,293.47574,510.02975C293.4758,510.05432,293.48416,510.09122,293.49652,510.11163C293.50684,510.13208,293.51938,510.20782,293.52374,510.27954C293.52808,510.35126,293.54065,510.42703,293.55304,510.44952C293.59015,510.5211,293.59683,510.6645,293.5794,510.9616C293.54846,511.47604,293.53445,511.5724,293.4794,511.65247C293.45697,511.6833,293.4408,511.74072,293.44098,511.79193C293.44128,511.88208,293.41287,511.95596,293.3679,511.98276C293.35153,511.99304,293.3394,512.03406,293.33954,512.0812C293.33975,512.1427,293.3276,512.1755,293.2888,512.21045C293.2602,512.2372,293.2378,512.2721,293.23785,512.2905C293.23816,512.3807,293.14175,512.35236,293.05942,512.2379C292.9647,512.1112,292.86597,511.99887,292.7858,511.92743C292.64398,511.80295,292.54117,511.69266,292.46085,511.57617C292.35165,511.41467,292.18872,511.10382,292.18857,511.0567C292.18848,511.03415,292.18015,511.0014,292.16983,510.98096C292.15952,510.96255,292.1326,510.88068,292.10773,510.80292C292.08493,510.72308,292.0476,510.60028,292.0248,510.5266C291.9481,510.27075,291.92102,510.1459,291.89566,509.92267C291.8681,509.66458,291.8392,509.59912,291.75726,509.60965C291.6262,509.62445,291.4966,510.0613,291.41916,510.76434C291.3616,511.28705,291.39108,511.51437,291.5707,511.901C291.62646,512.02576,291.6285,512.02783,291.7584,512.2548C291.81613,512.3591,291.87787,512.4367,291.93332,512.47754C292.01346,512.5346,292.27823,512.6668,292.4711,512.74396C292.74194,512.8516,293.13748,512.883,293.2868,512.8087C293.38907,512.75714,293.65042,512.5001,293.71353,512.38513C293.8581,512.1326,293.97974,511.76135,294.0744,511.29797C294.1469,510.94733,294.1664,510.66452,294.13474,510.39624C294.06494,509.7777,294.07748,509.84528,293.95523,509.4646C293.93036,509.38477,293.8972,509.2702,293.88263,509.20874C293.86807,509.14734,293.8494,509.0859,293.8412,509.07574C293.835,509.06342,293.81638,509.01434,293.80185,508.96313C293.78732,508.912,293.72952,508.78516,293.6738,508.67883C293.61813,508.57452,293.5727,508.47223,293.57263,508.4538C293.57254,508.43536,293.56223,508.40875,293.5499,508.3965C293.52316,508.36996,293.51285,508.35156,293.4015,508.14914C293.28397,507.93646,292.90985,507.59558,292.6882,507.49802C292.5138,507.42285,292.2759,507.3704,292.10794,507.37097C291.98907,507.3714,291.74542,507.4112,291.65335,507.4443C291.46713,507.51257,291.2443,507.65475,291.08093,507.809C291.03598,507.85217,290.99307,507.88715,290.98285,507.8872C290.97464,507.8872,290.90512,507.92847,290.8295,507.97992C290.75388,508.03143,290.67206,508.0727,290.64542,508.07278C290.60242,508.07294,290.47147,508.13074,290.27927,508.23593C290.19745,508.27924,290.19128,508.2813,290.1256,508.24673C289.99838,508.18365,289.96542,508.1387,289.96503,508.03012C289.96448,507.8703,290.0032,507.8169,290.14246,507.78772C290.28983,507.75644,290.4146,507.69455,290.41446,507.65152C290.4144,507.63513,290.44708,507.60632,290.488,507.5898C290.54733,507.565,290.58218,507.56284,290.66623,507.581C290.73184,507.59302,290.7974,507.59485,290.83426,507.58447C290.96115,507.54715,291.08792,507.47498,291.10007,507.436C291.11224,507.39706,291.20627,507.3332,291.25342,507.33304C291.2657,507.333,291.3006,507.35132,291.33347,507.37576L291.39096,507.41653L291.5096,507.36285C291.63644,507.30707,291.66913,507.27832,291.6526,507.23532C291.6443,507.2087,291.74036,507.1469,291.7916,507.14673C291.80594,507.14667,291.84497,507.17523,291.87582,507.2079C291.91904,507.25897,291.93954,507.2671,291.98663,507.25668C292.13608,507.2193,292.18515,507.19452,292.2116,507.14117C292.26245,507.03238,292.43256,507.05023,292.44528,507.16287C292.4516,507.20996,292.46185,507.21606,292.54178,507.22192C292.6627,507.22974,292.72,507.2131,292.77103,507.15558C292.80978,507.1124,292.82208,507.10828,292.87952,507.12653C292.9636,507.1549,292.99445,507.18143,292.9946,507.22443C292.99466,507.24493,293.0091,507.2715,293.02554,507.2858C293.0687,507.3225,293.25513,507.31778,293.298,507.2787C293.32864,507.24988,293.343,507.24985,293.4353,507.2823C293.51532,507.3107,293.53995,507.327,293.54422,507.36798C293.561,507.4806,293.70462,507.53952,293.813,507.47562C293.8682,507.44266,293.87228,507.44263,293.95444,507.49768C294.03864,507.55267,294.04895,507.567,294.04303,507.63257C294.03708,507.69202,294.12128,507.74292,294.2196,507.74054C294.29745,507.73822,294.32208,507.74838,294.38376,507.8055C294.44336,507.86267,294.45163,507.87903,294.43332,507.91394C294.40073,507.97144,294.4049,507.99188,294.4563,508.03885C294.4892,508.06946,294.52405,508.0796,294.57526,508.07532C294.63467,508.071,294.65314,508.0791,294.69226,508.13843C294.72726,508.1895,294.7356,508.22635,294.7276,508.28174C294.7176,508.34937,294.7238,508.35754,294.78534,508.386C294.83255,508.40634,294.86752,508.44717,294.90054,508.51672L294.94803,508.61487L294.90515,508.66217C294.85004,508.7218,294.8646,508.7832,294.94464,508.82593C295.03085,508.86868,295.11172,509.1368,295.05038,509.1739C295.01563,509.19452,295.02835,509.31946,295.0674,509.35413C295.08798,509.37454,295.11465,509.38882,295.1249,509.3888C295.16385,509.38864,295.26315,509.6608,295.25937,509.75916C295.25565,509.86365,295.31543,509.96176,295.38098,509.96155C295.40146,509.96146,295.45078,509.9982,295.48782,510.04315C295.52487,510.09015,295.5763,510.15143,295.60098,510.18207C295.62775,510.21274,295.6484,510.26593,295.64853,510.30072C295.6488,510.37653,295.7208,510.4521,295.79456,510.45184C295.8212,510.45175,295.86838,510.47208,295.8992,510.4986C295.93002,510.52512,295.9773,510.5639,296.00607,510.5863C296.03482,510.6067,296.05954,510.6435,296.0596,510.6681C296.05975,510.707,296.0721,510.72336,296.17282,510.81317C296.216,510.85193,296.30612,510.85162,296.3306,510.8126C296.3408,510.79617,296.34897,510.80023,296.35724,510.8207C296.3655,510.8432,296.38605,510.8493,296.4188,510.84302C296.4741,510.83258,296.6423,510.8914,296.67728,510.93225C296.7061,510.96698,296.86182,510.97052,296.8945,510.93765C296.91696,510.91504,297.11777,510.92047,297.2756,510.94858C297.33304,510.9607,297.36578,510.9544,297.40872,510.9256C297.49045,510.86996,297.59686,510.8286,297.6788,510.82422C297.79355,510.8177,297.83853,510.79498,297.8813,510.72516C297.94446,510.6225,298.05066,510.52994,298.11417,510.52148C298.17355,510.51517,298.21844,510.45764,298.2386,510.36127C298.24463,510.33255,298.28537,510.2689,298.33234,510.2216C298.3854,510.162,298.4139,510.11273,298.4138,510.07788C298.4137,510.04715,298.43796,509.96304,298.46848,509.89328C298.50906,509.79276,298.51715,509.7538,298.50064,509.72723C298.4883,509.7088,298.48398,509.64532,298.48993,509.58588C298.4958,509.50598,298.4895,509.46704,298.46063,509.42413C298.44006,509.39142,298.4255,509.3382,298.42743,509.30334C298.43137,509.25418,298.4169,509.2214,298.36963,509.17654C298.3367,509.14178,298.3079,509.10297,298.30786,509.0907C298.3077,509.05176,298.07544,508.83743,297.98926,508.79675C297.9441,508.77438,297.8989,508.74585,297.89066,508.73157C297.88242,508.71518,297.85574,508.703,297.83524,508.70306C297.79837,508.7032,297.73477,508.68292,297.63626,508.63614C297.57263,508.6077,297.4927,508.59976,297.22635,508.5987C297.00302,508.5974,296.9948,508.5995,296.8414,508.67377C296.7555,508.7151,296.66556,508.76865,296.64102,508.7913C296.61856,508.81186,296.5879,508.8304,296.57562,508.83044C296.53668,508.8306,296.4224,508.96417,296.42258,509.00925C296.42288,509.0994,296.52533,509.097,296.7094,509.00412C296.91803,508.89886,297.01218,508.86987,297.1638,508.86935C297.68008,508.86752,298.0766,509.1673,298.11703,509.5954C298.1277,509.7142,298.12375,509.7552,298.09125,509.83112C298.04654,509.93372,297.84653,510.16187,297.7627,510.2072C297.4825,510.35574,297.46,510.364,297.2204,510.39557C296.96646,510.43134,296.93365,510.42737,296.7449,510.35013C296.69974,510.33185,296.62582,510.29318,296.5807,510.26465C296.5355,510.23615,296.47183,510.19946,296.439,510.18323C296.2789,510.1018,295.96408,509.7157,295.88754,509.50696C295.82336,509.32892,295.72562,508.91745,295.7253,508.82318C295.7228,508.7023,295.66034,508.41568,295.59198,508.20898C295.52988,508.02686,295.47824,507.91437,295.3339,507.6485C295.22665,507.45013,294.98605,507.20306,294.66556,506.96243C294.23416,506.63818,294.1931,506.61578,293.71915,506.43307C293.40732,506.31326,293.32733,506.28894,293.12436,506.26102C293.03418,506.24902,292.89682,506.229,292.81686,506.217C292.61188,506.18494,291.97058,506.1913,291.8785,506.22647C291.7721,506.26578,291.7597,506.23303,291.8516,506.1487C291.90878,506.0973,291.93536,506.08286,291.9518,506.09918C291.9868,506.13388,292.0728,506.12537,292.1464,506.08005C292.19547,506.04913,292.21176,506.0245,292.2116,505.97943C292.21146,505.93436,292.2298,505.90353,292.27884,505.8665C292.35852,505.80475,292.4056,505.79843,292.4324,505.84546C292.44687,505.87204,292.47147,505.8781,292.53702,505.8676C292.63528,505.85498,292.68228,505.82205,292.6821,505.76877C292.68204,505.74622,292.69427,505.7298,292.70862,505.72974C292.725,505.72968,292.75363,505.71115,292.77405,505.68854C292.82303,505.63507,292.87836,505.63693,292.90927,505.6901C292.9299,505.72897,292.94424,505.733,293.04053,505.72244C293.1429,505.71182,293.26154,505.65198,293.30026,505.59244C293.3227,505.5575,293.41498,505.5818,293.42538,505.62683C293.44614,505.7046,293.75333,505.66254,293.77966,505.57843C293.79587,505.52716,293.87988,505.53094,293.919,505.5841C293.94373,505.6209,293.96832,505.62695,294.05847,505.62665C294.20395,505.622,294.27356,505.60538,294.28775,505.56845C294.29996,505.53564,294.44333,505.52692,294.44345,505.55765C294.44348,505.5679,294.4579,505.59247,294.47437,505.6088C294.52988,505.66388,294.7346,505.62015,294.8654,505.52747C294.90424,505.49866,294.91245,505.50067,294.96173,505.53738C295.04803,505.6047,295.14426,505.58182,295.3507,505.44586C295.40182,505.41086,295.41,505.41083,295.45724,505.4414C295.5291,505.48828,295.66837,505.46524,295.69272,505.4016C295.71912,505.32983,295.8868,505.24112,295.96472,505.25522C296.04468,505.26926,296.1633,505.20532,296.1631,505.14594C296.163,505.12335,296.19156,505.08844,296.23038,505.06372C296.26517,505.04105,296.31216,505.004,296.3305,504.9814C296.35092,504.95673,296.38773,504.93817,296.4164,504.93808C296.48608,504.93784,296.5677,504.8474,296.55722,504.78595C296.54266,504.71838,296.6669,504.51102,296.73038,504.4944C296.79382,504.47574,296.8488,504.37106,296.8138,504.3302C296.77472,504.2832,296.8293,504.0843,296.9008,504.01025C296.96405,503.94446,296.97202,503.88092,296.92676,503.82166C296.88763,503.77057,296.88705,503.61078,296.92575,503.54303C296.96854,503.46704,296.96222,503.41992,296.89426,503.31976C296.84274,503.24417,296.83237,503.20938,296.832,503.1008C296.83157,502.98196,296.82742,502.96967,296.77405,502.93912C296.71246,502.90247,296.62592,502.7696,296.6257,502.70813C296.62555,502.6671,296.56592,502.6018,296.52902,502.60193C296.51675,502.602,296.45715,502.54684,296.39545,502.4815C296.30496,502.38348,296.2741,502.36105,296.23523,502.37143C296.21066,502.37766,296.18402,502.37573,296.1758,502.3655C296.1346,502.30417,296.03815,502.25534,295.96027,502.2556C295.91315,502.2558,295.85367,502.24164,295.827,502.2233C295.78796,502.19473,295.76337,502.1928,295.67123,502.21155C295.61188,502.22406,295.5463,502.2284,295.52374,502.22437C295.4991,502.21832,295.4521,502.2349,295.40506,502.26578C295.36212,502.29462,295.311,502.31937,295.2905,502.31943C295.27002,502.31952,295.22507,502.3504,295.18832,502.3895C295.15363,502.42853,295.10458,502.46558,295.08002,502.4718C295.0534,502.47803,295.0248,502.51096,295.00858,502.55606C294.99237,502.60123,294.9638,502.63818,294.9331,502.64853C294.90036,502.66095,294.88406,502.68353,294.8842,502.71634C294.88428,502.74503,294.866,502.79016,294.84357,502.8189C294.7701,502.91135,294.71967,503.12256,294.71637,503.35208C294.71326,503.63278,294.74426,503.71255,294.93134,503.88812C295.07318,504.02078,295.11835,504.04318,295.1489,503.9939C295.17538,503.95078,295.15262,503.89145,295.06204,503.7627C294.91583,503.56036,294.90717,503.4272,295.01465,503.10922C295.13226,502.76462,295.42233,502.52386,295.7174,502.5228C295.85876,502.5223,296.0497,502.63846,296.1958,502.8121C296.32544,502.96326,296.33368,502.9796,296.42056,503.21085C296.5136,503.4543,296.50803,503.60803,296.39856,503.9444C296.33978,504.12695,296.23187,504.32404,296.1339,504.4289C295.90326,504.6776,295.51657,504.8388,295.0148,504.8959C294.71167,504.9277,294.13382,504.91745,293.63577,504.8659C293.52307,504.85608,293.42673,504.85028,293.4165,504.85645C293.40836,504.86264,293.2547,504.8755,293.07648,504.88635C292.73645,504.90802,292.62793,504.93097,292.06915,505.0866C291.89926,505.13434,291.55362,505.3179,291.37585,505.4517C291.2328,505.5608,291.0856,505.6535,291.05283,505.65363C291.0426,505.6537,291.09363,505.60434,291.17535,505.53436C291.1876,505.52408,291.2182,505.48706,291.24677,505.45013C291.2733,505.41312,291.3386,505.34937,291.38968,505.30823C291.53473,505.1889,292.09402,504.58655,292.1837,504.45306C292.19998,504.42844,292.24283,504.37708,292.27957,504.33798C292.34082,504.27222,292.37543,504.21265,292.55246,503.8658C292.60742,503.75903,292.6763,503.53546,292.71655,503.3325C292.7266,503.28122,292.74442,503.10086,292.7561,502.93283C292.77554,502.62952,292.7669,502.51068,292.7064,502.19537C292.69592,502.13806,292.68338,502.0623,292.67505,502.02542C292.66876,501.98856,292.65637,501.9538,292.6461,501.9477C292.63583,501.94156,292.62753,501.917,292.62744,501.89038C292.62735,501.86578,292.61908,501.83713,292.61084,501.8269C292.60056,501.81464,292.5799,501.76556,292.56537,501.71442C292.44928,501.32962,292.17758,500.98224,291.55685,500.42712C291.27734,500.17816,291.14725,499.89792,291.17288,499.613C291.18668,499.46133,291.20496,499.40594,291.2762,499.28482C291.39233,499.09183,291.53552,499.0278,291.74673,499.0742C291.9272,499.11453,291.97635,499.11844,291.99063,499.09586C292.02322,499.04453,291.97388,498.98938,291.84457,498.92633C291.65982,498.8368,291.5,498.82916,291.3568,498.89935 Z"/> </g> </g> </svg>